<svg width="152" height="31" viewBox="0 0 152 31" xmlns="http://www.w3.org/2000/svg">
  <title>
    Logo
  </title>
  <g fill="none" fill-rule="evenodd">
    <path d="M12.073 19.646c.613 0 .958.352 1.38 1.018l1.84 2.94c.69 1.135 1.264 1.92 2.606 1.92 1.34-.002 1.954-.55 2.605-2.078.805-1.88 1.648-4.153 2.415-7.21.843-3.408 1.226-5.524 1.226-7.248 0-1.724-.536-2.742-2.376-3.095-2.53-.47-5.94-.744-9.697-.744-3.756 0-7.167.273-9.697.743C.536 6.246 0 7.263 0 8.988c0 1.724.383 3.84 1.226 7.25.767 3.055 1.61 5.327 2.415 7.208.653 1.528 1.266 2.077 2.607 2.077 1.342 0 1.917-.784 2.607-1.92l1.84-2.94c.42-.665.766-1.017 1.38-1.017zm23.572 6.197c3.22 0 5.672-1.018 6.975-2.43.69-.782 1.495-1.997.92-2.937-.498-.823-1.34-.98-2.338-.47-.996.51-2.108.783-3.373.783-1.227 0-2.53-.47-3.22-1.176-.843-.862-1.303-1.96-1.303-3.252 0-.313.19-.353.536-.078.882.705 2.185 1.057 3.948 1.057 3.26 0 6.133-2.232 6.133-5.68 0-3.643-3.372-6.347-8.47-6.347-5.71 0-10.12 3.762-10.12 10.11.002 5.915 3.834 10.42 10.312 10.42z" fill="#484A4C"/>
    <path fill="#E9EBEE" d="M59 0h1v31h-1z"/>
    <path d="M84.096 22h1.04l-.32-10h-1.36l-3.328 8.832L76.752 12h-1.376l-.336 10h1.008l.176-8.752 3.312 8.688h1.12l3.28-8.672.16 8.736zm4.416-9.744c0-.368-.224-.704-.672-.704-.448 0-.672.336-.672.704 0 .384.224.736.672.736.448 0 .672-.352.672-.736zM88.336 22v-7.536l-.992.208V22h.992zm8.16 0v-5.024c0-1.6-.864-2.512-2.336-2.512-.768 0-1.728.432-2.496 1.2v-1.2l-.992.208V22h.992v-5.552c.608-.608 1.424-1.04 2.224-1.04 1.104 0 1.616.576 1.616 1.856V22h.992zm3.44-9.744c0-.368-.224-.704-.672-.704-.448 0-.672.336-.672.704 0 .384.224.736.672.736.448 0 .672-.352.672-.736zM99.76 22v-7.536l-.992.208V22h.992zm9.856-9.392c-.736-.448-1.872-.816-3.088-.816-2.8 0-4.832 2.048-4.832 5.232 0 3.168 1.936 5.184 4.832 5.184 1.168 0 2.272-.336 3.008-.816l-.192-1.008c-.688.512-1.712.896-2.8.896-2.288 0-3.808-1.648-3.808-4.288 0-2.72 1.6-4.272 3.776-4.272 1.056 0 1.984.288 2.784.8l.32-.912zm8.512 5.712c0-2.352-1.472-3.856-3.52-3.856s-3.616 1.552-3.616 3.888c0 2.352 1.504 3.856 3.536 3.856s3.6-1.552 3.6-3.888zm-.976.032c0 1.728-1.024 2.96-2.576 2.96s-2.592-1.2-2.592-2.992c0-1.728 1.024-2.96 2.576-2.96s2.592 1.2 2.592 2.992zm8.64 3.648v-5.024c0-1.6-.864-2.512-2.336-2.512-.768 0-1.728.432-2.496 1.2v-1.2l-.992.208V22h.992v-5.552c.608-.608 1.424-1.04 2.224-1.04 1.104 0 1.616.576 1.616 1.856V22h.992zm6.656-2c0-1.36-1.12-1.84-2.16-2.144-.944-.288-1.808-.544-1.808-1.376 0-.704.576-1.12 1.472-1.12.64 0 1.392.208 2 .544l.288-.896c-.624-.32-1.424-.544-2.224-.544-1.376 0-2.48.784-2.48 2.112 0 1.28 1.12 1.776 2.128 2.08.912.288 1.84.544 1.84 1.424 0 .8-.768 1.232-1.648 1.232-.752 0-1.536-.256-2.16-.672l-.272.912c.624.4 1.536.656 2.4.656 1.472 0 2.624-.864 2.624-2.208zm8.448-1.68c0-2.352-1.472-3.856-3.52-3.856s-3.616 1.552-3.616 3.888c0 2.352 1.504 3.856 3.536 3.856s3.6-1.552 3.6-3.888zm-.976.032c0 1.728-1.024 2.96-2.576 2.96s-2.592-1.2-2.592-2.992c0-1.728 1.024-2.96 2.576-2.96s2.592 1.2 2.592 2.992zM143.728 22V11.008l-.992.208V22h.992zm2.832-3.632l4.96-.032c.096-.32.16-.784.16-1.168 0-1.648-1.056-2.704-2.672-2.704-1.984 0-3.456 1.632-3.456 3.936 0 2.224 1.424 3.808 3.536 3.808.912 0 1.728-.24 2.352-.624l-.192-.912c-.56.368-1.328.608-2.128.608-1.536 0-2.528-1.184-2.56-2.832v-.08zm.064-.784c.16-1.216 1.008-2.224 2.32-2.224 1.152 0 1.76.768 1.76 1.888 0 .08 0 .24-.016.32l-4.064.016z" fill="#484A4C"/>
  </g>
</svg>
